<?xml version="1.0" encoding="UTF-8" standalone="no"?>
<svg
   enable-background="new 0 0 24 24"
   height="24px"
   viewBox="0 0 24 24"
   width="24px"
   fill="#5f6368"
   version="1.1"
   id="svg8"
   sodipodi:docname="chat-unread.svg"
   inkscape:version="1.2.2 (732a01da63, 2022-12-09)"
   xmlns:inkscape="http://www.inkscape.org/namespaces/inkscape"
   xmlns:sodipodi="http://sodipodi.sourceforge.net/DTD/sodipodi-0.dtd"
   xmlns="http://www.w3.org/2000/svg"
   xmlns:svg="http://www.w3.org/2000/svg">
  <defs
     id="defs12" />
  <sodipodi:namedview
     id="namedview10"
     pagecolor="#ffffff"
     bordercolor="#000000"
     borderopacity="0.25"
     inkscape:showpageshadow="2"
     inkscape:pageopacity="0.0"
     inkscape:pagecheckerboard="0"
     inkscape:deskcolor="#d1d1d1"
     showgrid="false"
     inkscape:zoom="70.791667"
     inkscape:cx="3.3337257"
     inkscape:cy="11.992937"
     inkscape:window-width="3840"
     inkscape:window-height="2053"
     inkscape:window-x="-11"
     inkscape:window-y="-11"
     inkscape:window-maximized="1"
     inkscape:current-layer="svg8" />
  <g
     id="g6">
    <rect
       fill="none"
       height="24"
       width="24"
       y="0"
       id="rect2" />
    <path
       d="M22,6.98V16c0,1.1-0.9,2-2,2H6l-4,4V4c0-1.1,0.9-2,2-2h10.1C14.04,2.32,14,2.66,14,3c0,2.76,2.24,5,5,5 C20.13,8,21.16,7.61,22,6.98z M16,3c0,1.66,1.34,3,3,3s3-1.34,3-3s-1.34-3-3-3S16,1.34,16,3z"
       id="path4" />
  </g>
  <path
     style="fill:#550000;stroke-width:0.014126"
     d="M 18.731018,5.9813691 C 18.711595,5.9780618 18.638493,5.9682956 18.56857,5.9596666 18.114131,5.9035863 17.596521,5.6874448 17.194175,5.3857531 17.051235,5.2785723 16.78695,5.0221811 16.673384,4.880518 15.940645,3.9664907 15.801462,2.7220849 16.315808,1.6835203 c 0.44782,-0.90423343 1.27292,-1.50076787 2.279423,-1.64798592 0.20375,-0.02980196 0.604611,-0.02980196 0.808361,0 0.658009,0.09624494 1.237716,0.3812346 1.693949,0.83276142 0.694743,0.6875774 1.011108,1.6555411 0.854611,2.6147959 -0.184697,1.1321026 -1.015877,2.071913 -2.112246,2.388305 -0.281274,0.08117 -0.457025,0.1061344 -0.783991,0.1113589 -0.15927,0.00254 -0.305474,0.00192 -0.324897,-0.00139 z"
     id="path241" />
  <path
     style="fill:#550000;stroke-width:0.014126"
     d="M 18.565944,5.9533177 C 17.706895,5.8280193 16.903914,5.295941 16.456817,4.5557495 16.235628,4.1895598 16.094755,3.7871027 16.038959,3.3619776 c -0.02838,-0.216239 -0.02093,-0.6450581 0.0146,-0.8404944 0.117561,-0.646594 0.402284,-1.1948129 0.854698,-1.6456739 0.436855,-0.43535572 1.027001,-0.73089203 1.653248,-0.82792174 0.180385,-0.02794859 0.656952,-0.03174463 0.833431,-0.0066386 1.142009,0.16246236 2.081878,0.94451635 2.43721,2.02797384 0.116185,0.3542661 0.155101,0.6308035 0.144017,1.0234079 -0.0076,0.2709516 -0.02703,0.4134799 -0.08946,0.6578107 -0.09745,0.381375 -0.305596,0.7972064 -0.555069,1.1088876 -0.09954,0.1243611 -0.324983,0.352181 -0.449683,0.454424 -0.427166,0.3502382 -1.000144,0.5928066 -1.527355,0.6466002 -0.197158,0.020117 -0.628899,0.016265 -0.788651,-0.00704 z"
     id="path312" />
  <path
     style="fill:#e41e3f;stroke-width:0.014126;fill-opacity:1"
     d="M 18.561507,5.9527432 C 18.038973,5.8768108 17.50791,5.6382303 17.09947,5.2959218 16.962712,5.1813062 16.727023,4.940097 16.638363,4.8240141 16.4577,4.587473 16.261849,4.2209793 16.174111,3.9552678 15.970396,3.3383198 15.965392,2.6824137 16.159888,2.0906416 c 0.290176,-0.8828888 0.943355,-1.56692866 1.800491,-1.88555954 0.358077,-0.13311121 0.630249,-0.18035461 1.039032,-0.18035461 0.323667,0 0.461277,0.0155269 0.720922,0.08134339 1.002193,0.25404293 1.79134,0.98772846 2.111799,1.96338176 0.116192,0.3537507 0.155145,0.6305727 0.143976,1.0231781 -0.013,0.4568218 -0.09969,0.8093765 -0.300699,1.222849 -0.138435,0.284755 -0.315109,0.5320379 -0.554061,0.7754952 -0.479802,0.4888481 -1.118751,0.8032598 -1.766753,0.8693783 -0.199083,0.020313 -0.629343,0.016185 -0.793088,-0.00761 z"
     id="path993" />
</svg>
