<?xml version="1.0" encoding="UTF-8" standalone="no"?>
<svg
   height="24"
   viewBox="0 0 24 24"
   width="24"
   version="1.1"
   id="svg16"
   sodipodi:docname="chess.svg"
   inkscape:version="1.2 (dc2aedaf03, 2022-05-15)"
   xmlns:inkscape="http://www.inkscape.org/namespaces/inkscape"
   xmlns:sodipodi="http://sodipodi.sourceforge.net/DTD/sodipodi-0.dtd"
   xmlns="http://www.w3.org/2000/svg"
   xmlns:svg="http://www.w3.org/2000/svg">
  <defs
     id="defs20" />
  <sodipodi:namedview
     id="namedview18"
     pagecolor="#ffffff"
     bordercolor="#000000"
     borderopacity="0.25"
     inkscape:showpageshadow="2"
     inkscape:pageopacity="0.0"
     inkscape:pagecheckerboard="0"
     inkscape:deskcolor="#d1d1d1"
     showgrid="false"
     inkscape:zoom="70.791667"
     inkscape:cx="12.028252"
     inkscape:cy="12.028252"
     inkscape:window-width="3840"
     inkscape:window-height="2054"
     inkscape:window-x="-11"
     inkscape:window-y="-11"
     inkscape:window-maximized="1"
     inkscape:current-layer="svg16" />
  <g
     id="g167"
     style="fill:#b3b3b3;fill-rule:evenodd;fill-opacity:1">
    <path
       d="m 3,2 h 18 a 1,1 0 0 1 1,1 v 18 a 1,1 0 0 1 -1,1 H 3 A 1,1 0 0 1 2,21 V 3 A 1,1 0 0 1 3,2 Z m 1,6 h 4 v 4 H 4 v 4 h 4 v 4 h 4 v -4 h 4 v 4 h 4 v -4 h -4 v -4 h 4 V 8 H 16 V 4 H 12 V 8 H 8 V 4 H 4 Z"
       id="path12"
       style="fill:#b3b3b3;fill-rule:evenodd;fill-opacity:1" />
    <path
       d="m 16,8 h -4 v 4 h 4 z m -4,4 H 8 v 4 h 4 z"
       id="path14"
       style="fill:#b3b3b3;fill-rule:evenodd;fill-opacity:1" />
  </g>
</svg>
