<?xml version="1.0" encoding="UTF-8" standalone="no"?>
<svg
   width="1040.8068"
   zoomAndPan="magnify"
   viewBox="0 0 780.60507 213.43091"
   height="284.57455"
   preserveAspectRatio="xMidYMid"
   version="1.0"
   id="svg4651"
   sodipodi:docname="gaido logo.svg"
   inkscape:version="1.2 (dc2aedaf03, 2022-05-15)"
   xmlns:inkscape="http://www.inkscape.org/namespaces/inkscape"
   xmlns:sodipodi="http://sodipodi.sourceforge.net/DTD/sodipodi-0.dtd"
   xmlns="http://www.w3.org/2000/svg"
   xmlns:svg="http://www.w3.org/2000/svg">
  <sodipodi:namedview
     id="namedview4653"
     pagecolor="#ffffff"
     bordercolor="#000000"
     borderopacity="0.25"
     inkscape:showpageshadow="2"
     inkscape:pageopacity="0.0"
     inkscape:pagecheckerboard="0"
     inkscape:deskcolor="#d1d1d1"
     showgrid="false"
     inkscape:zoom="1.5731481"
     inkscape:cx="512.03061"
     inkscape:cy="94.396704"
     inkscape:window-width="3840"
     inkscape:window-height="2054"
     inkscape:window-x="-11"
     inkscape:window-y="-11"
     inkscape:window-maximized="1"
     inkscape:current-layer="svg4651" />
  <defs
     id="defs4605">
    <g
       id="g4603" />
  </defs>
  <path
     fill="#000000"
     d="m 10.59375,-5e-6 h 190.6875 c 0.69531,0 1.38281,0.0703 2.06641,0.20704 0.68359,0.13281 1.34375,0.33593 1.98828,0.60156 0.64062,0.26562 1.2539,0.59375 1.83203,0.97656 0.57812,0.38672 1.11328,0.82813 1.60547,1.32031 0.49218,0.49219 0.92968,1.02735 1.3164,1.60547 0.38672,0.57813 0.71094,1.1875 0.98047,1.83203 0.26563,0.64063 0.46485,1.30469 0.60156,1.98438 0.13672,0.68359 0.20313,1.37109 0.20313,2.0664 V 201.28125 c 0,0.69921 -0.0664,1.38671 -0.20313,2.07032 -0.13671,0.67968 -0.33593,1.34375 -0.60156,1.98437 -0.26953,0.64453 -0.59375,1.25391 -0.98047,1.83203 -0.38672,0.57813 -0.82422,1.11328 -1.3164,1.60547 -0.49219,0.49219 -1.02735,0.92969 -1.60547,1.31641 -0.57813,0.38672 -1.19141,0.71484 -1.83203,0.98047 -0.64453,0.26562 -1.30469,0.46875 -1.98828,0.60155 -0.6836,0.13672 -1.3711,0.20313 -2.06641,0.20313 H 10.59375 c -0.695312,0 -1.382812,-0.0664 -2.066406,-0.20313 -0.683594,-0.1328 -1.34375,-0.33594 -1.988282,-0.60155 C 5.898438,210.80469 5.285156,210.47657 4.707031,210.08985 4.128906,209.70313 3.59375,209.26563 3.101562,208.77344 2.609375,208.28125 2.171875,207.7461 1.785156,207.16797 1.398438,206.58985 1.074219,205.98047 0.804688,205.33594 0.539062,204.69532 0.339844,204.03125 0.203125,203.35157 0.066406,202.66797 0,201.98047 0,201.28125 V 10.593745 c 0,-0.69531 0.06641,-1.38281 0.203125,-2.0664 0.136719,-0.67969 0.335937,-1.34375 0.601563,-1.98438 0.269531,-0.64453 0.59375,-1.2539 0.980468,-1.83203 C 2.171875,4.132815 2.609375,3.597655 3.101562,3.105465 3.59375,2.613285 4.128906,2.171875 4.707031,1.785155 5.285156,1.402345 5.898438,1.074215 6.539062,0.808595 7.183594,0.542965 7.84375,0.339845 8.527344,0.207035 9.210938,0.070315 9.898438,-5e-6 10.59375,-5e-6 Z m 10.59375,63.5625 h 42.375 V 105.9375 h -42.375 v 42.375 h 42.375 v 42.375 h 42.375 v -42.375 h 42.375 v 42.375 h 42.375 v -42.375 h -42.375 v -42.375 h 42.375 V 63.562495 h -42.375 v -42.375 h -42.375 v 42.375 h -42.375 v -42.375 h -42.375 z m 0,0"
     fill-opacity="1"
     fill-rule="nonzero"
     id="path4607" />
  <path
     fill="#000000"
     d="m 148.3125,63.562495 h -42.375 V 105.9375 h 42.375 z m -42.375,42.375005 h -42.375 v 42.375 h 42.375 z m 0,0"
     fill-opacity="1"
     fill-rule="nonzero"
     id="path4609" />
  <g
     fill="#000000"
     fill-opacity="1"
     id="g4617"
     transform="translate(-21.1875,-333.98437)">
    <g
       transform="translate(254.20139,506.52466)"
       id="g4615">
      <g
         id="g4613">
        <path
           d="m 63.0625,40.890625 c -7.75,0 -15.25,-0.71875 -22.5,-2.15625 C 33.320312,37.304688 26.757812,35.085938 20.875,32.078125 17.4375,30.347656 15.394531,28.15625 14.75,25.5 c -0.648438,-2.648438 -0.398438,-5.195312 0.75,-7.640625 1.144531,-2.4375 2.898438,-4.195313 5.265625,-5.265625 2.375,-1.074219 4.921875,-0.964844 7.640625,0.328125 6.320312,3.15625 12.316406,5.195313 17.984375,6.125 5.664063,0.9375 10.507813,1.40625 14.53125,1.40625 19.226563,0 28.84375,-9.257813 28.84375,-27.765625 v -14.421875 c -3.023437,5.875 -7.652344,10.539063 -13.890625,13.984375 -6.242188,3.449219 -13.164062,5.171875 -20.765625,5.171875 -9.480469,0 -17.734375,-2.1875 -24.765625,-6.5625 -7.03125,-4.382813 -12.484375,-10.519531 -16.359375,-18.40625 -3.875,-7.894531 -5.8125,-17.082031 -5.8125,-27.5625 0,-10.46875 1.9375,-19.613281 5.8125,-27.4375 3.875,-7.820313 9.328125,-13.921875 16.359375,-18.296875 7.03125,-4.375 15.285156,-6.5625 24.765625,-6.5625 7.601563,0 14.488281,1.65234 20.65625,4.95312 6.175781,3.292974 10.695313,7.812505 13.5625,13.562505 v -4.53125 c 0,-4.445313 1.179687,-7.816405 3.546875,-10.109375 2.375,-2.30078 5.640625,-3.45313 9.79688,-3.45313 8.89453,0 13.34375,4.52344 13.34375,13.562505 v 82.875 c 0,17.070313 -4.52344,29.910156 -13.5625,38.515625 C 93.410156,36.582031 80.28125,40.890625 63.0625,40.890625 Z M 62.421875,-23.03125 c 8.320313,0 14.921875,-2.867188 19.796875,-8.609375 4.882812,-5.738281 7.328125,-13.5625 7.328125,-23.46875 0,-9.894531 -2.445313,-17.675781 -7.328125,-23.34375 -4.875,-5.675781 -11.476562,-8.515625 -19.796875,-8.515625 -8.324219,0 -14.929687,2.839844 -19.8125,8.515625 -4.875,5.667969 -7.3125,13.449219 -7.3125,23.34375 0,9.90625 2.4375,17.730469 7.3125,23.46875 4.882813,5.742187 11.488281,8.609375 19.8125,8.609375 z m 0,0"
           id="path4611" />
      </g>
    </g>
  </g>
  <g
     fill="#000000"
     fill-opacity="1"
     id="g4625"
     transform="translate(-21.1875,-333.98437)">
    <g
       transform="translate(384.21323,506.52466)"
       id="g4623">
      <g
         id="g4621">
        <path
           d="M 48.640625,2.15625 C 41.035156,2.15625 34.253906,0.6875 28.296875,-2.25 22.347656,-5.195312 17.6875,-9.179688 14.3125,-14.203125 10.9375,-19.222656 9.25,-24.894531 9.25,-31.21875 c 0,-7.738281 2.007812,-13.867188 6.03125,-18.390625 4.019531,-4.519531 10.550781,-7.785156 19.59375,-9.796875 9.039062,-2.007812 21.164062,-3.015625 36.375,-3.015625 h 7.53125 V -66.9375 c 0,-7.175781 -1.578125,-12.34375 -4.734375,-15.5 -3.15625,-3.15625 -8.464844,-4.734375 -15.921875,-4.734375 -4.167969,0 -8.65625,0.507813 -13.46875,1.515625 -4.804688,1 -9.859375,2.71875 -15.171875,5.15625 -3.4375,1.574219 -6.308594,1.75 -8.609375,0.53125 -2.292969,-1.21875 -3.835938,-3.15625 -4.625,-5.8125 -0.792969,-2.65625 -0.652344,-5.34375 0.421875,-8.0625 1.082031,-2.726562 3.273437,-4.738281 6.578125,-6.03125 6.601562,-2.72656 12.953125,-4.66406 19.046875,-5.8125 6.09375,-1.14453 11.65625,-1.71875 16.6875,-1.71875 15.351563,0 26.757813,3.55469 34.21875,10.65625 7.457035,7.105469 11.187505,18.117188 11.187505,33.03125 v 51.671875 c 0,9.179687 -4.16407,13.765625 -12.48438,13.765625 -8.460938,0 -12.6875,-4.585938 -12.6875,-13.765625 v -4.75 c -2.449219,5.886719 -6.328125,10.515625 -11.640625,13.890625 -5.304687,3.375 -11.617187,5.0625 -18.9375,5.0625 z M 54.25,-16.359375 c 7.03125,0 12.875,-2.4375 17.53125,-7.3125 4.664062,-4.882813 7,-11.054687 7,-18.515625 v -4.734375 h -7.3125 c -13.492188,0 -22.855469,1.042969 -28.09375,3.125 -5.242188,2.074219 -7.859375,5.839844 -7.859375,11.296875 0,4.730469 1.648437,8.605469 4.953125,11.625 3.300781,3.011719 7.894531,4.515625 13.78125,4.515625 z m 0,0"
           id="path4619" />
      </g>
    </g>
  </g>
  <g
     fill="#000000"
     fill-opacity="1"
     id="g4633"
     transform="translate(-21.1875,-333.98437)">
    <g
       transform="translate(501.95578,506.52466)"
       id="g4631">
      <g
         id="g4629">
        <path
           d="m 27.34375,-126.78125 c -5.03125,0 -8.949219,-1.25391 -11.75,-3.76562 -2.792969,-2.50782 -4.1875,-5.98829 -4.1875,-10.4375 0,-4.59375 1.394531,-8.10938 4.1875,-10.54688 2.800781,-2.4375 6.71875,-3.65625 11.75,-3.65625 10.613281,0 15.921875,4.73438 15.921875,14.20313 0,9.46875 -5.308594,14.20312 -15.921875,14.20312 z m 0,128.28125 c -4.3125,0 -7.621094,-1.292969 -9.921875,-3.875 -2.292969,-2.582031 -3.4375,-6.164062 -3.4375,-10.75 v -79 c 0,-9.75781 4.453125,-14.64063 13.359375,-14.64063 9.03125,0 13.546875,4.88282 13.546875,14.64063 v 79 c 0,4.585938 -1.148437,8.167969 -3.4375,10.75 C 35.160156,0.207031 31.789062,1.5 27.34375,1.5 Z m 0,0"
           id="path4627" />
      </g>
    </g>
  </g>
  <g
     fill="#000000"
     fill-opacity="1"
     id="g4641"
     transform="translate(-21.1875,-333.98437)">
    <g
       transform="translate(556.84486,506.52466)"
       id="g4639">
      <g
         id="g4637">
        <path
           d="m 54.453125,2.15625 c -9.179687,0 -17.25,-2.2226562 -24.21875,-6.671875 -6.960937,-4.445313 -12.375,-10.796875 -16.25,-19.046875 -3.875,-8.257812 -5.8125,-17.984375 -5.8125,-29.171875 0,-11.332031 1.9375,-21.050781 5.8125,-29.15625 3.875,-8.113281 9.289063,-14.394531 16.25,-18.843755 6.96875,-4.44531 15.039063,-6.67187 24.21875,-6.67187 7.46875,0 14.210937,1.65234 20.234375,4.95312 6.03125,3.292974 10.550781,7.667974 13.5625,13.125005 v -50.578125 c 0,-9.03906 4.445312,-13.5625 13.34375,-13.5625 9.03906,0 13.5625,4.52344 13.5625,13.5625 v 127.859375 c 0,9.179687 -4.44922,13.765625 -13.34375,13.765625 -8.898438,0 -13.34375,-4.585938 -13.34375,-13.765625 v -4.53125 C 85.457031,-10.835938 80.9375,-6.28125 74.90625,-2.90625 68.875,0.46875 62.054688,2.15625 54.453125,2.15625 Z m 7.53125,-20.453125 c 8.039063,0 14.5,-2.90625 19.375,-8.71875 4.882813,-5.8125 7.328125,-14.382813 7.328125,-25.71875 0,-11.476563 -2.445312,-20.050781 -7.328125,-25.71875 -4.875,-5.675781 -11.335937,-8.515625 -19.375,-8.515625 -8.03125,0 -14.492187,2.839844 -19.375,8.515625 -4.875,5.667969 -7.3125,14.242187 -7.3125,25.71875 0,11.335937 2.4375,19.90625 7.3125,25.71875 4.882813,5.8125 11.34375,8.71875 19.375,8.71875 z m 0,0"
           id="path4635" />
      </g>
    </g>
  </g>
  <g
     fill="#000000"
     fill-opacity="1"
     id="g4649"
     transform="translate(-21.1875,-333.98437)">
    <g
       transform="translate(685.9957,506.52466)"
       id="g4647">
      <g
         id="g4645">
        <path
           d="m 61.984375,2.15625 c -10.898437,0 -20.367187,-2.2226562 -28.40625,-6.671875 C 25.546875,-8.960938 19.300781,-15.3125 14.84375,-23.5625 10.394531,-31.820312 8.171875,-41.546875 8.171875,-52.734375 c 0,-11.195313 2.222656,-20.882813 6.671875,-29.0625 4.457031,-8.175781 10.703125,-14.488281 18.734375,-18.937505 8.039063,-4.44531 17.507813,-6.67187 28.40625,-6.67187 10.90625,0 20.375,2.22656 28.40625,6.67187 8.039063,4.449224 14.285155,10.761724 18.734375,18.937505 4.44531,8.179687 6.67188,17.867187 6.67188,29.0625 0,11.1875 -2.22657,20.914063 -6.67188,29.171875 -4.44922,8.25 -10.695312,14.601562 -18.734375,19.046875 -8.03125,4.4492188 -17.5,6.671875 -28.40625,6.671875 z m 0,-20.453125 c 8.039063,0 14.5,-2.90625 19.375,-8.71875 4.882813,-5.8125 7.328125,-14.382813 7.328125,-25.71875 0,-11.476563 -2.445312,-20.050781 -7.328125,-25.71875 -4.875,-5.675781 -11.335937,-8.515625 -19.375,-8.515625 -8.03125,0 -14.492187,2.839844 -19.375,8.515625 -4.875,5.667969 -7.3125,14.242187 -7.3125,25.71875 0,11.335937 2.4375,19.90625 7.3125,25.71875 4.882813,5.8125 11.34375,8.71875 19.375,8.71875 z m 0,0"
           id="path4643" />
      </g>
    </g>
  </g>
</svg>
