<?xml version="1.0" encoding="UTF-8" standalone="no"?>
<!-- Created with Inkscape (http://www.inkscape.org/) -->

<svg
   xmlns:dc="http://purl.org/dc/elements/1.1/"
   xmlns:cc="http://creativecommons.org/ns#"
   xmlns:rdf="http://www.w3.org/1999/02/22-rdf-syntax-ns#"
   xmlns:svg="http://www.w3.org/2000/svg"
   xmlns="http://www.w3.org/2000/svg"
   xmlns:sodipodi="http://sodipodi.sourceforge.net/DTD/sodipodi-0.dtd"
   xmlns:inkscape="http://www.inkscape.org/namespaces/inkscape"
   width="300.59534mm"
   height="93.520699mm"
   viewBox="0 0 300.59534 93.520699"
   version="1.1"
   id="svg59"
   inkscape:version="0.92.1 r15371"
   sodipodi:docname="logo-horizontal.svg">
  <defs
     id="defs53" />
  <sodipodi:namedview
     id="base"
     pagecolor="#ffffff"
     bordercolor="#666666"
     borderopacity="1.0"
     inkscape:pageopacity="0.0"
     inkscape:pageshadow="2"
     inkscape:zoom="0.35"
     inkscape:cx="0.91134714"
     inkscape:cy="162.44631"
     inkscape:document-units="mm"
     inkscape:current-layer="layer1"
     showgrid="false"
     fit-margin-top="0"
     fit-margin-left="0"
     fit-margin-right="0"
     fit-margin-bottom="0"
     inkscape:window-width="1920"
     inkscape:window-height="1017"
     inkscape:window-x="-8"
     inkscape:window-y="-8"
     inkscape:window-maximized="1" />
  <metadata
     id="metadata56">
    <rdf:RDF>
      <cc:Work
         rdf:about="">
        <dc:format>image/svg+xml</dc:format>
        <dc:type
           rdf:resource="http://purl.org/dc/dcmitype/StillImage" />
        <dc:title></dc:title>
      </cc:Work>
    </rdf:RDF>
  </metadata>
  <g
     inkscape:label="Camada 1"
     inkscape:groupmode="layer"
     id="layer1"
     transform="translate(27.077437,-98.293221)">
    <path
       class="fil0"
       d="m 172.24901,133.73762 v 28.85415 h -5.79117 v -28.85415 z m 35.00089,23.08841 h 10.64249 c -1.72717,-3.75917 -3.37817,-7.36595 -5.30854,-11.22672 -1.87961,3.75917 -3.65758,7.44215 -5.33395,11.22672 z m 13.25866,5.76574 h -15.72246 -0.91437 -5.61337 -0.1778 -0.0254 l 0.0254,-0.0254 v -15.16366 c -0.1524,-2.08277 -1.01597,-3.86077 -2.56537,-5.35936 -1.65098,-1.70178 -3.68298,-2.56538 -6.09595,-2.56538 -2.38757,0 -4.44494,0.8636 -6.14674,2.56538 -1.70177,1.65099 -2.56537,3.68296 -2.56537,6.09596 v 0 14.45246 h -5.79115 v -14.45246 0 -1.143 h 0.0508 c 0.2286,-3.53057 1.62557,-6.55314 4.16555,-9.09312 2.8702,-2.79398 6.29917,-4.21637 10.28691,-4.21637 4.03857,0 7.44215,1.42239 10.23612,4.21637 2.53997,2.53998 3.93697,5.56255 4.16557,9.09312 h 0.0508 v 1.143 0 2.87017 l 8.71212,-17.34806 8.53431,17.14486 v -2.66697 0 -1.143 h 0.0508 c 0.254,-3.53057 1.651,-6.55314 4.16557,-9.09312 2.87017,-2.79398 6.32455,-4.21637 10.31232,-4.21637 4.01317,0 7.41675,1.42239 10.21072,4.21637 1.24458,1.24459 2.20978,2.59078 2.89558,4.03856 0.6858,-1.47318 1.65097,-2.81937 2.89557,-4.06396 2.87017,-2.81938 6.29912,-4.21637 10.31229,-4.21637 4.77515,0 8.63592,1.93039 11.5569,5.76575 l -4.14015,4.14017 c -1.7272,-2.74318 -4.19097,-4.14017 -7.41675,-4.14017 -2.41297,0 -4.47037,0.8636 -6.17212,2.59078 -1.7018,1.65099 -2.56537,3.68296 -2.56537,6.07056 0,2.38757 0.86357,4.44495 2.56537,6.17215 1.70175,1.72717 3.75915,2.59077 6.17212,2.59077 3.22578,0 5.68955,-1.397 7.41675,-4.21637 l 4.14015,4.21637 c -2.92098,3.83537 -6.78175,5.74034 -11.5569,5.74034 -4.01317,0 -7.44212,-1.39697 -10.31229,-4.21634 -0.5842,-0.5842 -1.0922,-1.2192 -1.57477,-1.8542 v 6.07054 h -5.76578 v -15.18906 c -0.1778,-2.08277 -1.0414,-3.86077 -2.56537,-5.35936 -1.67638,-1.70178 -3.70838,-2.56538 -6.09595,-2.56538 -2.38757,0 -4.44497,0.8636 -6.17215,2.56538 -1.7018,1.65099 -2.5654,3.68296 -2.5654,6.09596 v 0 14.24926 l 0.1016,0.2032 h -0.1016 -0.1016 -5.68954 z M 108.64794,150.98408 c 0.91439,0 1.90498,-0.2286 2.87018,-0.7112 1.95578,-0.9652 2.89557,-2.69237 2.89557,-5.07994 0,-2.43839 -0.96519,-4.11478 -2.89557,-5.05457 -0.9652,-0.508 -1.95579,-0.7874 -2.87018,-0.7874 h -5.84195 c 0,7.79774 0,15.49389 0,23.2408 h -5.791147 v -11.32829 c -0.96519,1.75258 -2.43838,3.12418 -4.39416,4.08938 -1.93039,0.99057 -3.86077,1.49857 -5.79115,1.49857 h -5.84195 v 5.74034 h -5.79116 v -28.93035 h 11.63311 c 1.93038,0 3.86076,0.4572 5.79115,1.39699 1.95578,0.99059 3.42897,2.36218 4.39416,4.08937 v -5.58795 h 11.633097 c 1.93038,0 3.86077,0.50799 5.76575,1.49858 2.81938,1.39699 4.59736,3.58137 5.35935,6.50235 0.6858,-1.32079 1.57479,-2.56538 2.71778,-3.68297 2.87018,-2.81938 6.29915,-4.21637 10.28691,-4.21637 4.03857,0 7.44214,1.39699 10.23612,4.21637 1.06679,1.06679 1.93038,2.20978 2.59077,3.45437 v -7.67074 h 17.93225 v 5.76575 h -12.14109 v 5.76577 h 12.14109 v 5.74034 h 0.0254 v 0.0508 h -12.16649 v 11.60769 h -5.79116 v -7.72151 c -0.66039,1.24457 -1.52398,2.41297 -2.59077,3.50517 -2.79398,2.81937 -6.19755,4.21634 -10.23612,4.21634 -3.98776,0 -7.41673,-1.39697 -10.28691,-4.21634 -1.98118,-2.0066 -3.25117,-4.29257 -3.83537,-6.88335 -0.78739,1.29538 -1.85418,2.38758 -3.20037,3.25118 l 4.87676,7.74691 h -6.07055 l -7.23894,-11.50609 z m 15.41767,-2.89557 c 0,2.38757 0.83819,4.44495 2.56538,6.17215 1.70178,1.72717 3.75916,2.59077 6.14674,2.59077 2.41298,0 4.44497,-0.8636 6.09595,-2.59077 1.72719,-1.7272 2.59078,-3.78458 2.59078,-6.17215 0,-2.3876 -0.86359,-4.41957 -2.59078,-6.07056 -1.65098,-1.72718 -3.68297,-2.59078 -6.09595,-2.59078 -2.38758,0 -4.44496,0.8636 -6.14674,2.59078 -1.72719,1.65099 -2.56538,3.68296 -2.56538,6.07056 z m -37.236077,2.89557 c 0.93979,0 1.90498,-0.2286 2.89557,-0.7112 1.90499,-0.9398 2.89558,-2.61617 2.89558,-5.07994 0,-2.38759 -0.99059,-4.08938 -2.89558,-5.05457 -0.99059,-0.4572 -1.95578,-0.7112 -2.89557,-0.7112 h -5.84195 v 11.55691 z"
       id="path4187"
       inkscape:connector-curvature="0"
       style="clip-rule:evenodd;fill:#01c0a1;fill-rule:nonzero;stroke-width:0.28222224;image-rendering:optimizeQuality;shape-rendering:geometricPrecision;text-rendering:geometricPrecision" />
    <path
       class="fil1"
       d="m 42.39169,118.00417 c 14.935073,12.52209 16.890854,34.79771 4.343363,49.75818 -10.54091,12.54749 -27.939762,15.92566 -42.1128399,9.24552 l 10.6171099,-12.67449 -4.698963,-3.96237 -18.6688389,22.25021 -4.3687631,-3.65757 18.6688391,-22.22481 -4.36876,-3.68297 -10.69331,12.75069 c -9.3217211,-12.80149 -9.1185211,-30.78453 1.523986,-43.45902 12.547492,-14.93508 34.8231039,-16.89086 49.7581769,-4.34337 z m -13.004689,15.64627 -3.886165,10.31231 -3.886169,10.28691 -11.175907,-9.37252 9.474123,-5.61335 z m -4.69896,30.83533 7.035739,-21.08182 7.035742,-21.08181 -19.532434,10.5917 -19.5324329,10.56631 c 8.381929,7.06115 16.6114569,13.96989 24.9933859,21.00562 z m 25.044185,-55.24452 c 9.905916,8.28033 15.493868,19.81183 16.53526,31.72433 1.041392,11.9379 -2.463779,24.25679 -10.769507,34.1373 -8.305731,9.88052 -19.811831,15.46847 -31.72433,16.53526 -9.093121,0.7874 -18.3894439,-1.06679 -26.6951729,-5.63875 l 3.733769,-4.47036 c 7.035739,3.65757 14.8334749,5.10536 22.4534089,4.44496 10.46471,-0.91439 20.599223,-5.84195 27.888962,-14.52867 7.289736,-8.68673 10.363113,-19.50704 9.448718,-29.97175 -0.914392,-10.46471 -5.81655,-20.59922 -14.528676,-27.88896 -8.686726,-7.28974 -19.507033,-10.36311 -29.971746,-9.44872 -10.4647099,0.91439 -20.5992219,5.81655 -27.88896,14.50328 -7.289738,8.68672 -10.363112,19.50703 -9.448721,29.99714 0.685795,7.74694 3.555972,15.34147 8.559727,21.69142 l -3.733766,4.44496 c -6.14675,-7.44214 -9.677319,-16.43366 -10.49011,-25.65378 -1.041392,-11.9125 2.463777,-24.23139 10.769507,-34.11191 8.3057301,-9.90592 19.8118321,-15.493868 31.749731,-16.53526 11.912497,-1.041392 24.231391,2.46378 34.111906,10.76951 z"
       id="path4189"
       inkscape:connector-curvature="0"
       style="clip-rule:evenodd;fill:#01c0a1;fill-rule:evenodd;stroke-width:0.28222224;image-rendering:optimizeQuality;shape-rendering:geometricPrecision;text-rendering:geometricPrecision" />
  </g>
</svg>
