<?xml version="1.0" encoding="UTF-8"?>
<svg id="Layer_2" data-name="Layer 2" xmlns="http://www.w3.org/2000/svg" xmlns:xlink="http://www.w3.org/1999/xlink" viewBox="0 0 512 512">
  <defs>
    <style>
      .cls-1 {
        fill: none;
      }

      .cls-2 {
        fill: url(#linear-gradient);
      }

      .cls-3 {
        fill: #1a0e38;
      }
    </style>
    <linearGradient id="linear-gradient" x1="151.17" y1="305.71" x2="339.88" y2="117" gradientUnits="userSpaceOnUse">
      <stop offset="0" stop-color="#54fbe2"/>
      <stop offset=".51" stop-color="#3d3cff"/>
      <stop offset="1" stop-color="#190535"/>
    </linearGradient>
  </defs>
  <g id="Layer_8" data-name="Layer 8">
    <rect class="cls-1" width="512" height="512"/>
    <path class="cls-2" d="m347.54,135.73v135.25c0,4.11-1.05,8.16-3.05,11.75h0c-2.41,4.33-5.98,7.9-10.31,10.31l-.08.04c-3.54,1.97-7.52,3.01-11.58,3.01h-143.17l-18.9,18.9v-37.79l88.01-88.01h-34.56v-26.73h56.41c1.45,0,2.9.19,4.3.57h0c2.16.57,4.2,1.42,6.11,2.48,4.32,2.41,7.9,5.99,10.31,10.31,1.06,1.9,1.9,3.95,2.48,6.11h0c.38,1.4.57,2.85.57,4.3v56.41h-26.73v-34.56l-61.29,61.29h114.74v-133.64h-133.64v93.55l-26.73,26.73v-120.27c0-4.86,1.3-9.43,3.57-13.36,2.35-4.06,5.73-7.44,9.79-9.79,3.94-2.27,8.5-3.57,13.36-3.57h133.64c2.39,0,4.72.31,6.92.91,2.28.61,4.44,1.51,6.44,2.67,4.06,2.35,7.44,5.73,9.79,9.79,1.16,2,2.06,4.16,2.67,6.44.59,2.2.91,4.53.91,6.92Z"/>
    <g>
      <path class="cls-3" d="m120.51,403h-17.33l-22.44-26.73h16.34c.31-.07.61-.15.91-.23,4.56-1.38,8.1-5.14,9.16-9.84.22-.96.33-1.94.33-2.96,0-.11,0-.22,0-.33-.02-.9-.13-1.78-.33-2.63-1.34-5.96-6.66-10.4-13.03-10.4-.11,0-.22,0-.33,0v-.34h-13.36v53.45h-13.36v-53.46c0-7.38,5.98-13.36,13.36-13.36h13.36c4.73,0,9.51,1.56,13.36,3.72,4.1,2.29,7.52,5.63,9.92,9.64,1.71,2.86,2.9,6.06,3.44,9.47v8.45c-.5,3.15-1.55,6.12-3.05,8.81-2.41,4.32-5.99,7.9-10.31,10.31-.07.04-.14.08-.21.11"/>
      <path class="cls-3" d="m63.48,349.55c-2.35-4.06-5.73-7.44-9.79-9.79-3.94-2.27-8.5-3.57-13.36-3.57h-13.37c-7.38,0-13.36,5.98-13.36,13.36v53.46h13.36v-13.36h13.36c4.86,0,9.43-1.3,13.36-3.57,4.06-2.35,7.44-5.73,9.79-9.79,2.27-3.94,3.57-8.5,3.57-13.36s-1.3-9.43-3.57-13.36Zm-36.52,26.73v-26.73h13.36c7.38,0,13.36,5.98,13.36,13.36s-5.98,13.36-13.36,13.36h-13.36Z"/>
      <path class="cls-3" d="m227.42,349.55v-13.36h-26.73c-7.38,0-13.36,5.98-13.36,13.36h0v53.45h13.36v-26.73h26.73v-13.36h-26.73v-13.36h26.73Z"/>
      <rect class="cls-3" x="240.78" y="336.18" width="13.36" height="66.82"/>
      <path class="cls-3" d="m488.95,384.29c-2.14,2.08-4.73,3.68-7.62,4.65-.88.3-1.79.54-2.73.7-1.18.22-2.39.33-3.62.33s-2.45-.11-3.62-.33c-1.17-.21-2.31-.52-3.39-.94-5.65-2.1-10.09-6.69-11.99-12.43-.67-1.99-1.04-4.13-1.04-6.35,0-2.47.45-4.83,1.27-7.02,2.02-5.43,6.33-9.74,11.76-11.76,2.18-.82,4.55-1.27,7.02-1.27,2.22,0,4.36.36,6.35,1.04,2.82.93,5.35,2.48,7.46,4.48l9.45-9.45c-1.11-1.08-2.29-2.08-3.54-2.99-3.9-2.86-8.44-4.89-13.36-5.83-2.06-.4-4.18-.61-6.35-.61-2.41,0-4.76.25-7.02.74-4.95,1.06-9.49,3.21-13.36,6.2-2.29,1.76-4.33,3.8-6.09,6.09-2.99,3.87-5.15,8.41-6.2,13.36-.49,2.26-.74,4.61-.74,7.02,0,2.17.21,4.29.61,6.35.94,4.92,2.97,9.47,5.83,13.36,1.86,2.55,4.08,4.83,6.59,6.76,3.87,2.99,8.41,5.15,13.36,6.2.75.17,1.52.3,2.3.41h9.43c.55-.07,1.09-.17,1.63-.27,4.92-.94,9.47-2.97,13.36-5.83,1.31-.96,2.55-2.01,3.71-3.15l-9.45-9.45Z"/>
      <path class="cls-3" d="m354.37,335.88l-33.41,67.12h66.82l-33.41-67.12Zm-11.89,53.76l11.89-23.83,11.89,23.83h-23.77Z"/>
      <path class="cls-3" d="m300.92,336.18c-18.45,0-33.41,14.96-33.41,33.41v33.41h13.36v-33.41c0-11.07,8.97-20.05,20.05-20.05s20.05,8.97,20.05,20.05v33.41h13.36v-33.41c0-18.45-14.96-33.41-33.41-33.41Z"/>
      <path class="cls-3" d="m407.83,336.18c-18.45,0-33.41,14.96-33.41,33.41v33.41h13.36v-33.41c0-11.07,8.97-20.05,20.05-20.05s20.05,8.97,20.05,20.05v33.41h13.36v-33.41c0-18.45-14.96-33.41-33.41-33.41Z"/>
      <path class="cls-3" d="m153.92,336.18c-18.45,0-33.41,14.96-33.41,33.41s14.96,33.41,33.41,33.41,33.41-14.96,33.41-33.41-14.96-33.41-33.41-33.41Zm0,53.45c-11.07,0-20.05-8.97-20.05-20.05s8.97-20.05,20.05-20.05,20.05,8.97,20.05,20.05-8.97,20.05-20.05,20.05Z"/>
    </g>
  </g>
</svg>