<?xml version="1.0" encoding="UTF-8"?>
<svg id="Layer_2" data-name="Layer 2" xmlns="http://www.w3.org/2000/svg" viewBox="0 0 750 454.82">
  <defs>
    <style>
      .cls-1 {
        fill: #eee;
      }
    </style>
  </defs>
  <g id="Layer_2-2" data-name="Layer 2">
    <g>
      <path class="cls-1" d="m477.91,289.43c6.27,0,12.43-1.6,17.91-4.65l.12-.07c6.69-3.73,12.22-9.25,15.95-15.95h0c3.1-5.56,4.72-11.81,4.72-18.18V41.35c0-3.7-.49-7.3-1.41-10.71-.94-3.53-2.34-6.87-4.12-9.96-3.63-6.27-8.87-11.52-15.14-15.14-3.09-1.79-6.44-3.18-9.96-4.12-3.41-.92-7.01-1.41-10.71-1.41h-206.74c-7.53,0-14.59,2.02-20.67,5.53-6.27,3.63-11.52,8.87-15.14,15.14-3.51,6.09-5.53,13.15-5.53,20.67v186.06l41.35-41.35V41.35h206.74v206.74h-177.51l94.81-94.81v53.46h41.35v-87.27c0-2.25-.3-4.49-.89-6.65-.89-3.34-2.19-6.5-3.84-9.45-3.73-6.68-9.27-12.22-15.95-15.95-2.95-1.64-6.11-2.95-9.45-3.84-2.17-.59-4.41-.89-6.65-.89h-87.27v41.35h53.46l-136.16,136.16v58.47l29.23-29.23h221.49Z"/>
      <path class="cls-1" d="m557.96,41.35c11.42,0,20.67-9.26,20.67-20.67s-9.26-20.67-20.67-20.67-20.67,9.26-20.67,20.67,9.26,20.67,20.67,20.67Zm0-37.21c9.12,0,16.54,7.42,16.54,16.54s-7.42,16.54-16.54,16.54-16.54-7.42-16.54-16.54,7.42-16.54,16.54-16.54Z"/>
      <path class="cls-1" d="m553.61,23.58h8.7v7.43h3.66v-6.83c0-1.36-.69-2.04-2.07-2.04h-2.72v-.97c3.02-.4,4.54-1.92,4.54-4.56,0-1.08-.21-1.99-.62-2.75-.42-.76-1.03-1.33-1.83-1.73s-1.69-.68-2.65-.85c-.96-.17-2.08-.26-3.35-.26h-7.31v19.99h3.66v-7.43Zm0-9.39h3.66c.72,0,1.28,0,1.67.03.4.02.83.08,1.29.2.46.11.8.28,1.02.5.22.22.41.52.57.92.16.4.24.89.24,1.47s-.08,1.07-.23,1.46c-.15.39-.34.69-.58.91-.24.22-.58.38-1.03.48-.45.1-.88.17-1.29.2-.41.03-.96.04-1.66.04h-3.66v-6.21Z"/>
      <path class="cls-1" d="m144.72,429.43c6.68-3.73,12.22-9.27,15.95-15.95,2.33-4.16,3.95-8.74,4.72-13.62v-13.07c-.84-5.28-2.68-10.23-5.32-14.66-3.71-6.21-9.01-11.37-15.35-14.92-5.96-3.34-13.36-5.76-20.67-5.76h-20.68c-11.42,0-20.67,9.26-20.67,20.67v82.7h20.67v-82.7h20.67v.53c.18-.01.34-.01.52-.01,9.85,0,18.08,6.87,20.16,16.09.3,1.31.48,2.67.51,4.06.01.18.01.34.01.52,0,1.57-.18,3.1-.52,4.58-1.64,7.27-7.11,13.08-14.17,15.22-.47.13-.93.26-1.41.36h-25.28l34.72,41.35h26.81l-21-25.22c.11-.05.22-.11.33-.18Z"/>
      <path class="cls-1" d="m62.02,356.99c-6.09-3.51-13.15-5.53-20.67-5.53h-20.68c-11.42,0-20.67,9.25-20.67,20.67v82.7h20.67v-20.67h20.67c7.53,0,14.59-2.02,20.67-5.53,6.27-3.63,11.52-8.87,15.14-15.14,3.51-6.09,5.53-13.15,5.53-20.67s-2.02-14.59-5.53-20.67c-3.63-6.27-8.87-11.52-15.14-15.14Zm-20.67,56.49h-20.67v-41.35h20.67c11.42,0,20.67,9.25,20.67,20.67s-9.25,20.67-20.67,20.67Z"/>
      <path class="cls-1" d="m268.76,372.13h0v82.7h20.67v-41.35h41.35v-20.67h-41.35v-20.67h41.35v-20.67h-41.35c-11.42,0-20.67,9.26-20.67,20.67Z"/>
      <rect class="cls-1" x="351.46" y="351.46" width="20.67" height="103.37"/>
      <path class="cls-1" d="m735.38,425.88c-3.3,3.21-7.32,5.7-11.79,7.19-1.36.46-2.77.84-4.22,1.09-1.82.34-3.69.52-5.6.52s-3.78-.18-5.6-.52c-1.81-.32-3.57-.81-5.25-1.45-8.74-3.26-15.61-10.35-18.55-19.23-1.04-3.08-1.6-6.39-1.6-9.82,0-3.81.69-7.47,1.96-10.85,3.13-8.39,9.8-15.06,18.19-18.19,3.38-1.27,7.04-1.96,10.85-1.96,3.43,0,6.74.56,9.82,1.6,4.36,1.45,8.28,3.84,11.53,6.93l14.62-14.62c-1.72-1.66-3.54-3.21-5.48-4.62-6.03-4.42-13.06-7.57-20.67-9.02-3.18-.62-6.46-.94-9.82-.94-3.72,0-7.36.39-10.85,1.15-7.66,1.63-14.69,4.97-20.67,9.59-3.54,2.72-6.7,5.88-9.42,9.42-4.62,5.99-7.96,13.01-9.59,20.67-.75,3.49-1.15,7.13-1.15,10.85,0,3.36.32,6.64.94,9.82,1.46,7.62,4.6,14.65,9.02,20.67,2.88,3.95,6.32,7.47,10.19,10.45,5.99,4.62,13.01,7.96,20.67,9.59,1.17.26,2.36.46,3.56.63h14.6c.85-.11,1.68-.26,2.52-.42,7.62-1.46,14.65-4.6,20.67-9.02,2.03-1.48,3.95-3.12,5.74-4.88l-14.62-14.62Z"/>
      <path class="cls-1" d="m609.88,351.46c-28.54,0-51.68,23.14-51.68,51.68v10.15l-31.01-62.31-31.01,62.31v-10.15c0-28.54-23.14-51.68-51.68-51.68s-51.68,23.14-51.68,51.68v51.68h20.67v-51.68c0-17.13,13.88-31.01,31.01-31.01s31.01,13.88,31.01,31.01v51.68h103.37v-51.68c0-17.13,13.88-31.01,31.01-31.01s31.01,13.88,31.01,31.01v51.68h20.67v-51.68c0-28.54-23.14-51.68-51.68-51.68Zm-101.08,82.7l18.39-36.86,18.39,36.86h-36.78Z"/>
      <path class="cls-1" d="m217.08,351.46c-28.54,0-51.68,23.14-51.68,51.68s23.14,51.68,51.68,51.68,51.68-23.14,51.68-51.68-23.14-51.68-51.68-51.68Zm0,82.7c-17.13,0-31.01-13.88-31.01-31.01s13.88-31.01,31.01-31.01,31.01,13.88,31.01,31.01-13.88,31.01-31.01,31.01Z"/>
    </g>
  </g>
</svg>