<svg xmlns="http://www.w3.org/2000/svg" height="24" viewBox="0 -960 960 960" width="24" fill="#5f6368" >
    <path d="M294.403-505.326q-66.398 0-113.237-46.936-46.84-46.937-46.84-113.335t46.936-113.237q46.937-46.84 113.334-46.84 66.398 0 113.238 46.936 46.84 46.937 46.84 113.334 0 66.398-46.936 113.238-46.937 46.84-113.335 46.84ZM294.5-618.5q19.583 0 33.292-13.708Q341.5-645.917 341.5-665.5q0-19.583-13.708-33.292Q314.083-712.5 294.5-712.5q-19.583 0-33.292 13.708Q247.5-685.083 247.5-665.5q0 19.583 13.708 33.292Q274.917-618.5 294.5-618.5Zm370.904 484.174q-66.398 0-113.238-46.936-46.84-46.937-46.84-113.334 0-66.398 46.936-113.238 46.937-46.84 113.335-46.84t113.237 46.936q46.84 46.937 46.84 113.335t-46.936 113.237q-46.937 46.84-113.334 46.84ZM665.5-247.5q19.583 0 33.292-13.708Q712.5-274.917 712.5-294.5q0-19.583-13.708-33.292Q685.083-341.5 665.5-341.5q-19.583 0-33.292 13.708Q618.5-314.083 618.5-294.5q0 19.583 13.708 33.292Q645.917-247.5 665.5-247.5ZM216-136.978 136.978-216 744-823.022 823.022-744 216-136.978Z"/>
</svg>