<?xml version="1.0" ?>
<svg id="Layer_1" style="enable-background:new 0 0 512 512;" version="1.1" viewBox="0 0 512 512" xml:space="preserve"
     xmlns="http://www.w3.org/2000/svg" xmlns:xlink="http://www.w3.org/1999/xlink"><style type="text/css">
	.st0{fill:#575756;}
	.st1{fill:#575756;}
	.st2{fill:#575756;}
	.st3{fill:#575756;}
	.st4{fill:#575756;}
</style>
    <g><g><g><polygon class="st0" id="XMLID_6_" points="19.6,302.1 6,273.7 172.8,194.6 203.9,242.4 432.3,109.8 448.1,137 193.8,284.6      161.5,234.9    "/><polygon
            class="st0" id="XMLID_5_" points="506,85.3 412.6,81.6 464.8,169.3    "/></g><g><polygon class="st1" id="XMLID_4_" points="232.2,430.4 232.2,430.4 290.6,430.4 290.6,245.2 232.2,279.1    "/>
        <polygon class="st2" id="XMLID_3_" points="320.4,430.4 378.8,430.4 378.8,194 320.4,227.9    "/>
        <polygon class="st3" id="XMLID_2_"
                 points="156.3,253.5 144.1,259.4 144.1,430.4 202.4,430.4 202.4,296.4 189.2,304.1    "/>
        <polygon class="st4" id="XMLID_1_" points="55.9,430.4 55.9,430.4 114.2,430.4 114.2,273.7 55.9,301.6    "/></g></g></g></svg>