<svg xmlns="http://www.w3.org/2000/svg" viewBox="0 0 90 90">
    <defs>
        <style>.cls-1{fill:#94704e}.cls-2{fill:none}.cls-3{fill:#f4cc9d}.cls-9{fill:#a78765}.cls-10{fill:#4f483c}
        </style>
    </defs>
    <g id="Layer_1" data-name="Layer 1">
        <path class="cls-1" d="M78.1 16v-.16a16 16 0 0 0-32 0v24.31a16 16 0 0 0 32 0V16Z"/>
        <path class="cls-2" d="M48.39 15.87ZM70.86 15.92Z"/>
        <path class="cls-3" d="M48.39 15.87Z"/>
        <path style="fill:#d3a983" d="M53 33.15h18v21.67H53z"/>
        <path class="cls-3" d="M70.86 15.92Z"/>
        <path d="M76.87 22.65a2.24 2.24 0 0 0-1.16-1.88V18.2a2.28 2.28 0 0 0-2.21-2.27L70 14.51l-2.59 1.41H50.68a2.27 2.27 0 0 0-2.27 2.28v2.57a2.27 2.27 0 0 0-1.17 1.88v4.65a2.28 2.28 0 0 0 2.24 2.27c.67 5.42 6.41 14 12.58 14s11-8.36 12.58-14a2.28 2.28 0 0 0 2.24-2.27v-4.55s-.01-.06-.01-.1Z"
              style="fill:#e6c6a1"/>
        <path class="cls-1"
              d="M61.62 4a15.81 15.81 0 0 0-8.78 2.42c-5 3.32-4.55 10.28-4.55 13.14a6.27 6.27 0 0 0 6.26 6.27 2.11 2.11 0 0 1 0-4.21h7.07A8.82 8.82 0 0 0 70 15.49c.46.27 4.62.76 4.62 14.08 0 2.89 2.89 2.38 2.89-8.53 0-3.18-2.6-9.45-2.6-9.45S71.49 4 61.62 4Z"/>
        <path d="M84.13 71c6.86 0 5.81-7.51 5.81-10.44a9.15 9.15 0 0 0-5.42-8.36l-13.45-7.4h-.09a9.05 9.05 0 0 1-18 0h-.1l-13.44 7.4a9.16 9.16 0 0 0-5.43 8.36c0 2.93-1 10.44 5.82 10.44Z"
              style="fill:#666564"/>
        <path d="m51.55 67.69-9.18-5.84a20.46 20.46 0 0 0 2.28-5.7c.14-.55 3-.82 3-4.58 0-.6.13-2.19.22-4l-8.37 4.61a9.16 9.16 0 0 0-5.43 8.36c0 2.93-1 10.44 5.82 10.44h16.4a13.71 13.71 0 0 0-4.74-3.29Z"
              style="fill:#4b4847"/>
        <path class="cls-1" d="M18.95 58.68h18.12v19.14H18.95z"/>
        <path d="M50.13 90C57 90 56 82.48 56 79.56a9.16 9.16 0 0 0-5.43-8.36l-13.49-7.4h-.1a9 9 0 0 1-17.95 0h-.1L5.48 71.2a9.15 9.15 0 0 0-5.42 8.36C.06 82.48-1 90 5.87 90Z"
              style="fill:#7eadca"/>
        <path class="cls-9"
              d="M14.36 50c.52 9.83 6.42 17.6 13.64 17.6S41.13 59.82 41.65 50l-.52-6.84C39.44 35.31 34.21 29.59 28 29.59s-11.43 5.72-13.11 13.56Z"/>
        <path class="cls-10"
              d="M44 34c0-7.57-7.18-13.69-16-13.69S12.07 26.45 12 34v11.49h4.57V36.3H28l2-5.62 3.87 1.14a4.55 4.55 0 0 0 4.07 2.53v4.38h1.51v6.76H44V34Z"/>
        <path class="cls-10"
              d="M37.91 27.64a4.55 4.55 0 0 0-2.36.68A7.95 7.95 0 0 0 20 30.78a7.46 7.46 0 0 0 .14 1.43h-5.83v6.52H28a7.94 7.94 0 0 0 6.55-3.45 4.56 4.56 0 1 0 3.36-7.64Z"/>
        <path class="cls-9"
              d="M41.7 43.3v-4.24a2.29 2.29 0 0 0-2.28-2.28h-2.28l-3.7 2.16-16.85-.21A2.29 2.29 0 0 0 14.31 41v2.3A2.29 2.29 0 0 0 12 45.58v4.57a2.29 2.29 0 0 0 2.29 2.27H41.7a2.28 2.28 0 0 0 2.3-2.27v-4.57a2.28 2.28 0 0 0-2.3-2.28Z"/>
        <path class="cls-1" d="M52.27 20.81c-3.36 2.61-5 2.63-5 6.49s-.9-3.88-.9-3.88L47.84 18Z"/>
    </g>
</svg>